<svg width="975" height="555" viewBox="0 0 975 555" fill="none" xmlns="http://www.w3.org/2000/svg">
<path d="M379.606 493.203L321.321 503.161M321.321 503.161L649.65 541.237M321.321 503.161V512.827M649.65 541.237L704.42 529.521M649.65 541.237V553.246M704.42 529.521V17.2576M704.42 529.521L790.53 513.12M704.42 529.521L659.608 521.028V502.576M704.42 17.2576L790.53 60.6053V92.5302M704.42 17.2576L379.606 92.5302V106.882L259.228 135.585V263.578M790.53 513.12V521.028L649.65 553.246M790.53 513.12V92.5302M790.53 513.12L802.831 493.203L872.539 479.73V471.529L973 451.027L964.799 206.171M321.321 512.827L649.65 553.246M321.321 512.827L5 476.216L19.6445 470.065V341.486M117.177 285.837L259.228 294.038V263.578M117.177 285.837V253.327L259.228 263.578M117.177 285.837L19.6445 293.381M19.6445 341.486H11.1507V294.038L19.6445 293.381M19.6445 341.486L46.2974 340.317M19.6445 293.381V263.578L108.097 272.657M396.008 232.824L659.608 206.171M659.608 206.171V92.5302L385.756 147.593V285.837L659.608 263.578V206.171ZM756.848 206.171V106.882L717.015 92.5302V197.97M756.848 206.171L717.015 197.97M756.848 206.171V373.118H717.015V197.97M790.53 92.5302L964.799 169.267V206.171M964.799 206.171L933.46 197.97M734.002 27.8016V17.2576L730.487 6.71358L752.454 2.02734V9.64247M752.454 9.64247V17.2576V36.8812L764.17 41.5674V22.5296V6.71358L752.454 9.64247ZM819.819 189.477V163.702L866.095 159.016L888.941 189.477V326.256L866.095 318.348H819.819V284.08M819.819 189.477L866.095 185.669L872.539 189.477L875.761 289.352L866.095 284.08H819.819M819.819 189.477V284.08M372.576 489.396L385.756 493.203V289.938L659.608 268.264V502.576M372.576 489.396L373.81 337.386M372.576 489.396L356.175 484.709L352.66 475.63V337.386M375.798 92.5302L375.525 126.213L374.051 307.804M356.175 117.426V310.44L374.051 307.804M374.051 307.804L373.81 337.386M373.81 337.386H352.66M352.66 337.386L264.793 341.486V475.63L229.353 479.162M46.2974 340.317V466.257H89.3522V338.427M46.2974 340.317L89.3522 338.427M89.3522 338.427L113.076 337.386L173.704 341.486V484.709L214.709 480.622M214.709 480.622V297.846H229.353V479.162M214.709 480.622L229.353 479.162M329.522 266.8L332.451 297.846M332.451 297.846H272.994V272.657L332.451 266.8V297.846ZM459.858 347.93H434.669M434.669 347.93V337.386H463.665V358.474M434.669 347.93V358.474M434.669 358.474H463.665M434.669 358.474V373.118M463.665 358.474V373.118M463.665 373.118H434.669M463.665 373.118V385.713M434.669 373.118V385.713M434.669 385.713V475.63L463.665 480.622V385.713M434.669 385.713H459.858H463.665M535.13 337.386H478.895V480.622H535.13V337.386ZM535.13 337.386V484.709L595.172 493.203M535.13 337.386L595.172 333.578M595.172 333.578V493.203M595.172 333.578L657.265 330.942L659.608 502.576M595.172 493.203L659.608 502.576M272.994 213.201L332.451 206.171V232.824L272.994 239.854V213.201ZM756.848 378.976H717.015V424.667H756.848V378.976ZM764.17 56.7977V72.028H772.956V60.6053L764.17 56.7977ZM811.032 119.476L818.94 116.254L824.212 119.476L819.819 127.97L824.212 471.529H818.94L811.032 119.476ZM924.088 163.702H933.46L929.359 175.125L933.46 455.713H929.359L924.088 163.702ZM103.118 367.846H142.658V476.216L103.118 475.63V367.846ZM247.805 297.846V475.63H255.713V297.846H247.805Z" stroke="white" stroke-width="2.36482"/>
</svg>
