<svg width="53" height="46" viewBox="0 0 53 46" fill="none" xmlns="http://www.w3.org/2000/svg">
<path d="M52 11L26.5 1L1 11M12.75 21.5H10.5L12.5 14L15 21.5H12.75ZM12.75 21.5C11 24 8.55 29.4 12.75 31V34.5M3.5 36.5H50M24.5 21.5L26.5 14L29 21.5M26.75 21.5C25 24 22.55 29.4 26.75 31M38.75 21.5L40.75 14L43.25 21.5M41 21.5C39.25 24 36.8 29.4 41 31" stroke="black"/>
<path d="M2 43C3.16667 41.1667 6.6 38.6 11 43C15.4 47.4 20.1667 44.8334 22 43C23.1667 41.1667 27 38.6 33 43C39 47.4 42.5 44.8333 43.5 43C44.8333 41.5 48.3 39.4 51.5 43" stroke="black"/>
</svg>
