<svg width="44" height="44" viewBox="0 0 44 44" fill="none" xmlns="http://www.w3.org/2000/svg">
<path d="M10.511 18.0001C2.51097 17.6001 0.844306 24.8334 1.01097 28.5001V43.0001H8.51074V32.5C5.31074 24.1 17.0107 26 26.5107 26M10.511 18.0001C18.511 18.4001 15.1775 18.1667 12.5107 18.0001V15M10.511 18.0001C11.1776 18.0001 14.9107 18.0001 24.5107 18.0001C34.1107 18.0001 35.1774 16 34.5107 15V3.5M12.5107 15H17.0107V28.5001H12.5107V15ZM41 3.5L42.5107 1H33.0107V3.5H41ZM41 3.5V18.0001C39.6667 21.5 36.1107 28 26.5107 26M26.5107 26V15H30.5107V28.5001H26.5107V26Z" stroke="black"/>
</svg>
